<svg width="500" height="500" viewBox="0 0 500 500" fill="none" xmlns="http://www.w3.org/2000/svg">
<path d="M390.585 0H109.415C48.9866 0 0 48.9866 0 109.415V390.585C0 451.013 48.9866 500 109.415 500H390.585C451.013 500 500 451.013 500 390.585V109.415C500 48.9866 451.013 0 390.585 0Z" fill="#01A8F4"/>
<path d="M346.551 406.051C343.585 406.048 340.665 405.316 338.044 403.918C335.423 402.521 333.182 400.5 331.515 398.031L272.766 310.917L174.677 337.412C171.022 338.401 167.152 338.215 163.608 336.88C160.064 335.545 157.024 333.128 154.914 329.967L93.861 238.606C92.179 236.099 91.1445 233.21 90.8509 230.2C90.5572 227.19 91.0137 224.154 92.1791 221.366L130.123 130.005C131.261 127.279 133.038 124.87 135.302 122.984C137.566 121.099 140.249 119.792 143.124 119.177L260.286 94.3568C264.427 93.4574 268.751 94.0565 272.497 96.0487L366.549 145.841C368.722 146.989 370.64 148.569 372.186 150.486C373.733 152.403 374.877 154.615 375.548 156.99L408.547 273.188C409.649 277.097 409.424 281.265 407.908 285.031L363.354 394.58C362.107 397.638 360.06 400.299 357.43 402.28C354.8 404.261 351.686 405.488 348.418 405.831C347.8 405.938 347.177 406.012 346.551 406.051ZM280.536 271.598C283.501 271.597 286.422 272.326 289.042 273.721C291.663 275.116 293.905 277.134 295.573 279.6L342.515 349.339L371.864 277.164L342.784 174.552L261.379 131.46L159.943 153.014L129.433 226.408L177.788 298.702L275.827 272.224C277.363 271.808 278.946 271.598 280.536 271.598Z" fill="white"/>
</svg>
