<svg width="840" height="170" viewBox="0 0 840 170" fill="none" xmlns="http://www.w3.org/2000/svg">
<path d="M140 169.69C138.382 169.687 136.79 169.289 135.361 168.531C133.932 167.773 132.71 166.678 131.8 165.34L99.72 118L46.18 132.39C44.1874 132.93 42.076 132.835 40.1401 132.118C38.2041 131.401 36.5401 130.098 35.38 128.39L2.04998 78.84C1.1334 77.48 0.569461 75.9133 0.408863 74.2812C0.248265 72.649 0.49607 71.0025 1.12999 69.49L21.85 19.94C22.4689 18.4601 23.4372 17.1522 24.672 16.1282C25.9067 15.1042 27.3712 14.3945 28.94 14.06L92.94 0.549973C95.2004 0.0699757 97.5575 0.399154 99.6 1.48L150.95 28.48C152.131 29.0986 153.175 29.9487 154.02 30.9795C154.866 32.0104 155.495 33.2009 155.87 34.48L173.87 97.54C174.478 99.6794 174.352 101.961 173.51 104.02L149.19 163.48C148.51 165.139 147.393 166.582 145.958 167.656C144.523 168.731 142.823 169.395 141.04 169.58C140.696 169.637 140.349 169.674 140 169.69ZM104 96.69C105.618 96.6923 107.21 97.0898 108.64 97.8479C110.069 98.606 111.291 99.7018 112.2 101.04L137.86 138.89L153.86 99.72L137.94 44.03L93.51 20.64L38.13 32.34L21.48 72.17L47.87 111.41L101.4 97.03C102.248 96.8076 103.123 96.7 104 96.71V96.69Z" fill="#01A8F4"/>
<path d="M239.4 106.24L265.01 48.224H281.171L306.864 106.24H289.791L269.734 56.2633H276.198L256.141 106.24H239.4ZM253.406 94.9683L257.633 82.8678H285.978L290.205 94.9683H253.406ZM310.77 106.24V61.319H326.518V106.24H310.77ZM318.644 56.3462C315.771 56.3462 313.45 55.5451 311.682 53.9427C309.914 52.3404 309.03 50.3512 309.03 47.9754C309.03 45.5995 309.914 43.6103 311.682 42.008C313.45 40.4056 315.771 39.6045 318.644 39.6045C321.517 39.6045 323.838 40.378 325.606 41.9251C327.374 43.417 328.258 45.3508 328.258 47.7267C328.258 50.2131 327.374 52.2851 325.606 53.9427C323.893 55.5451 321.572 56.3462 318.644 56.3462ZM356.311 106.986C352.222 106.986 348.493 106.047 345.122 104.168C341.807 102.234 339.155 99.5543 337.166 96.1286C335.177 92.6477 334.182 88.5037 334.182 83.6966C334.182 78.9448 335.177 74.8561 337.166 71.4304C339.155 67.9494 341.807 65.2696 345.122 63.391C348.493 61.5124 352.222 60.5731 356.311 60.5731C360.179 60.5731 363.439 61.4019 366.091 63.0595C368.798 64.7171 370.843 67.2588 372.224 70.6845C373.605 74.1102 374.296 78.4476 374.296 83.6966C374.296 89.0562 373.633 93.4488 372.307 96.8746C370.981 100.3 368.992 102.842 366.34 104.5C363.687 106.157 360.345 106.986 356.311 106.986ZM359.626 94.471C361.394 94.471 362.969 94.0566 364.35 93.2278C365.787 92.399 366.92 91.1835 367.748 89.5811C368.577 87.9235 368.992 85.962 368.992 83.6966C368.992 81.4312 368.577 79.525 367.748 77.9779C366.92 76.3756 365.787 75.16 364.35 74.3312C362.969 73.5024 361.394 73.088 359.626 73.088C357.803 73.088 356.173 73.5024 354.736 74.3312C353.355 75.16 352.25 76.3756 351.421 77.9779C350.592 79.525 350.178 81.4312 350.178 83.6966C350.178 85.962 350.592 87.9235 351.421 89.5811C352.25 91.1835 353.355 92.399 354.736 93.2278C356.173 94.0566 357.803 94.471 359.626 94.471ZM369.489 106.24V98.5322L369.572 83.6966L368.743 68.8611V44.743H384.49V106.24H369.489ZM418.16 106.986C412.855 106.986 408.214 105.991 404.236 104.002C400.313 101.958 397.246 99.1952 395.036 95.7142C392.881 92.178 391.804 88.1721 391.804 83.6966C391.804 79.2211 392.854 75.2429 394.953 71.7619C397.108 68.2257 400.064 65.4907 403.821 63.5568C407.579 61.5677 411.805 60.5731 416.502 60.5731C420.922 60.5731 424.956 61.4848 428.602 63.3082C432.249 65.0763 435.15 67.7008 437.305 71.1818C439.46 74.6627 440.537 78.8896 440.537 83.8624C440.537 84.4149 440.51 85.0503 440.454 85.7686C440.399 86.4869 440.344 87.15 440.289 87.7578H404.733V79.4697H431.918L425.95 81.7904C426.006 79.746 425.619 77.9779 424.79 76.4861C424.016 74.9942 422.911 73.8339 421.475 73.0051C420.093 72.1763 418.463 71.7619 416.585 71.7619C414.706 71.7619 413.049 72.1763 411.612 73.0051C410.231 73.8339 409.153 75.0219 408.38 76.569C407.606 78.0608 407.219 79.8289 407.219 81.8733V84.2768C407.219 86.4869 407.661 88.3932 408.546 89.9955C409.485 91.5979 410.811 92.8411 412.524 93.7251C414.237 94.5539 416.281 94.9683 418.657 94.9683C420.867 94.9683 422.746 94.6644 424.293 94.0566C425.895 93.3936 427.47 92.399 429.017 91.0729L437.305 99.6925C435.15 102.068 432.498 103.892 429.348 105.163C426.199 106.378 422.469 106.986 418.16 106.986ZM472.663 106.24V48.224H499.184C504.489 48.224 509.047 49.0804 512.86 50.7933C516.727 52.5061 519.711 54.9925 521.811 58.2525C523.91 61.4572 524.96 65.2696 524.96 69.6899C524.96 74.0549 523.91 77.8398 521.811 81.0445C519.711 84.1939 516.727 86.6251 512.86 88.3379C509.047 89.9955 504.489 90.8243 499.184 90.8243H481.78L489.073 83.9453V106.24H472.663ZM508.55 106.24L494.129 85.1056H511.616L526.12 106.24H508.55ZM489.073 85.6858L481.78 78.1437H498.19C501.616 78.1437 504.157 77.3977 505.815 75.9059C507.528 74.4141 508.384 72.3421 508.384 69.6899C508.384 66.9825 507.528 64.8829 505.815 63.391C504.157 61.8992 501.616 61.1533 498.19 61.1533H481.78L489.073 53.6112V85.6858ZM556.806 106.986C551.501 106.986 546.86 105.991 542.882 104.002C538.959 101.958 535.892 99.1952 533.682 95.7142C531.527 92.178 530.45 88.1721 530.45 83.6966C530.45 79.2211 531.499 75.2429 533.599 71.7619C535.754 68.2257 538.71 65.4907 542.467 63.5568C546.225 61.5677 550.451 60.5731 555.148 60.5731C559.568 60.5731 563.602 61.4848 567.248 63.3082C570.895 65.0763 573.796 67.7008 575.951 71.1818C578.106 74.6627 579.183 78.8896 579.183 83.8624C579.183 84.4149 579.155 85.0503 579.1 85.7686C579.045 86.4869 578.99 87.15 578.934 87.7578H543.379V79.4697H570.564L564.596 81.7904C564.651 79.746 564.265 77.9779 563.436 76.4861C562.662 74.9942 561.557 73.8339 560.121 73.0051C558.739 72.1763 557.109 71.7619 555.231 71.7619C553.352 71.7619 551.695 72.1763 550.258 73.0051C548.877 73.8339 547.799 75.0219 547.026 76.569C546.252 78.0608 545.865 79.8289 545.865 81.8733V84.2768C545.865 86.4869 546.307 88.3932 547.191 89.9955C548.131 91.5979 549.457 92.8411 551.17 93.7251C552.883 94.5539 554.927 94.9683 557.303 94.9683C559.513 94.9683 561.392 94.6644 562.939 94.0566C564.541 93.3936 566.116 92.399 567.663 91.0729L575.951 99.6925C573.796 102.068 571.144 103.892 567.994 105.163C564.845 106.378 561.115 106.986 556.806 106.986ZM546.694 55.9318L557.8 43.3341H573.547L557.966 55.9318H546.694ZM602.771 106.986C598.958 106.986 595.229 106.544 591.582 105.66C587.991 104.776 585.09 103.671 582.88 102.345L587.604 91.5702C589.703 92.8411 592.162 93.8632 594.98 94.6368C597.798 95.3551 600.561 95.7142 603.268 95.7142C605.92 95.7142 607.744 95.438 608.738 94.8854C609.788 94.3329 610.313 93.587 610.313 92.6477C610.313 91.7636 609.816 91.1282 608.821 90.7414C607.882 90.2994 606.611 89.9679 605.009 89.7469C603.462 89.5259 601.749 89.2772 599.87 89.001C597.991 88.7247 596.085 88.3655 594.151 87.9235C592.273 87.4262 590.532 86.7079 588.93 85.7686C587.383 84.7741 586.14 83.448 585.2 81.7904C584.261 80.1328 583.791 78.0332 583.791 75.4915C583.791 72.6183 584.62 70.0767 586.278 67.8665C587.991 65.6012 590.477 63.8331 593.737 62.5622C596.997 61.2362 600.975 60.5731 605.672 60.5731C608.821 60.5731 611.998 60.9046 615.203 61.5677C618.463 62.1755 621.198 63.1148 623.408 64.3856L618.684 75.0771C616.474 73.8063 614.264 72.9499 612.053 72.5078C609.843 72.0106 607.744 71.7619 605.755 71.7619C603.102 71.7619 601.224 72.0658 600.119 72.6736C599.069 73.2814 598.544 74.0273 598.544 74.9113C598.544 75.7954 599.014 76.4861 599.953 76.9833C600.892 77.4254 602.135 77.7845 603.683 78.0608C605.285 78.2818 607.025 78.5304 608.904 78.8067C610.783 79.0277 612.661 79.3869 614.54 79.8841C616.474 80.3814 618.214 81.1273 619.761 82.1219C621.364 83.0612 622.634 84.3597 623.574 86.0173C624.513 87.6196 624.983 89.6916 624.983 92.2333C624.983 94.9959 624.126 97.4823 622.413 99.6925C620.756 101.903 618.269 103.671 614.954 104.997C611.694 106.323 607.633 106.986 602.771 106.986ZM655.306 106.986C650.002 106.986 645.361 105.991 641.383 104.002C637.46 101.958 634.393 99.1952 632.183 95.7142C630.028 92.178 628.951 88.1721 628.951 83.6966C628.951 79.2211 630 75.2429 632.1 71.7619C634.255 68.2257 637.211 65.4907 640.968 63.5568C644.725 61.5677 648.952 60.5731 653.649 60.5731C658.069 60.5731 662.103 61.4848 665.749 63.3082C669.396 65.0763 672.297 67.7008 674.452 71.1818C676.607 74.6627 677.684 78.8896 677.684 83.8624C677.684 84.4149 677.656 85.0503 677.601 85.7686C677.546 86.4869 677.491 87.15 677.435 87.7578H641.88V79.4697H669.065L663.097 81.7904C663.152 79.746 662.766 77.9779 661.937 76.4861C661.163 74.9942 660.058 73.8339 658.622 73.0051C657.24 72.1763 655.61 71.7619 653.732 71.7619C651.853 71.7619 650.196 72.1763 648.759 73.0051C647.378 73.8339 646.3 75.0219 645.527 76.569C644.753 78.0608 644.366 79.8289 644.366 81.8733V84.2768C644.366 86.4869 644.808 88.3932 645.692 89.9955C646.632 91.5979 647.958 92.8411 649.671 93.7251C651.383 94.5539 653.428 94.9683 655.804 94.9683C658.014 94.9683 659.892 94.6644 661.44 94.0566C663.042 93.3936 664.617 92.399 666.164 91.0729L674.452 99.6925C672.297 102.068 669.645 103.892 666.495 105.163C663.346 106.378 659.616 106.986 655.306 106.986ZM711.164 106.24V97.8691L710.086 95.7971V80.3814C710.086 77.895 709.313 75.9888 707.766 74.6627C706.274 73.2814 703.87 72.5907 700.555 72.5907C698.4 72.5907 696.218 72.9499 694.008 73.6682C691.797 74.3312 689.919 75.2705 688.372 76.4861L683.067 65.7945C685.609 64.137 688.648 62.8661 692.184 61.9821C695.776 61.0428 699.339 60.5731 702.876 60.5731C710.169 60.5731 715.805 62.2583 719.783 65.6288C723.817 68.944 725.833 74.1654 725.833 81.2931V106.24H711.164ZM697.903 106.986C694.311 106.986 691.272 106.378 688.786 105.163C686.3 103.947 684.393 102.289 683.067 100.19C681.797 98.0901 681.161 95.7419 681.161 93.145C681.161 90.3823 681.852 88.0064 683.233 86.0173C684.67 83.9729 686.852 82.4258 689.781 81.376C692.709 80.2709 696.494 79.7184 701.135 79.7184H711.744V87.9235H703.29C700.748 87.9235 698.953 88.3379 697.903 89.1667C696.908 89.9955 696.411 91.1006 696.411 92.4819C696.411 93.8632 696.936 94.9683 697.986 95.7971C699.036 96.6259 700.472 97.0403 702.296 97.0403C704.008 97.0403 705.555 96.6259 706.937 95.7971C708.373 94.9131 709.423 93.587 710.086 91.8189L712.241 97.6205C711.412 100.715 709.782 103.063 707.351 104.665C704.975 106.212 701.826 106.986 697.903 106.986ZM754.67 106.986C751.023 106.986 747.736 106.268 744.807 104.831C741.934 103.394 739.669 101.157 738.011 98.1178C736.409 95.0236 735.607 91.1282 735.607 86.4317V61.319H751.355V83.8624C751.355 87.3433 751.99 89.8297 753.261 91.3216C754.587 92.8134 756.438 93.5593 758.814 93.5593C760.361 93.5593 761.77 93.2002 763.041 92.4819C764.312 91.7636 765.334 90.6309 766.107 89.0838C766.881 87.4815 767.268 85.4371 767.268 82.9507V61.319H783.015V106.24H768.014V93.5593L770.914 97.1232C769.367 100.438 767.129 102.925 764.201 104.582C761.273 106.185 758.096 106.986 754.67 106.986ZM787.936 106.24L808.574 79.1382L808.242 88.0893L788.434 61.319H806.17L817.276 77.1491L810.646 77.4806L822.415 61.319H839.073L819.265 87.5091V78.8896L839.654 106.24H821.669L810.065 89.3325L816.696 90.2442L805.01 106.24H787.936Z" fill="#01A8F4"/>
</svg>
